<svg width="25" height="26" viewBox="0 0 25 26" fill="none" xmlns="http://www.w3.org/2000/svg">
<g clip-path="url(#clip0_893_1967)">
<path fill-rule="evenodd" clip-rule="evenodd" d="M12.4628 0.5C5.57117 0.5 0 6.22917 0 13.3169C0 18.9826 3.56964 23.7784 8.52168 25.4758C9.14082 25.6034 9.3676 25.2 9.3676 24.8607C9.3676 24.5635 9.34719 23.5451 9.34719 22.4839C5.88036 23.2479 5.15842 20.956 5.15842 20.956C4.60128 19.4706 3.77577 19.0888 3.77577 19.0888C2.64107 18.3036 3.85842 18.3036 3.85842 18.3036C5.11709 18.3885 5.77755 19.6193 5.77755 19.6193C6.89158 21.5714 8.68673 21.0198 9.40893 20.6802C9.51199 19.8526 9.84235 19.2797 10.1931 18.9615C7.42806 18.6643 4.51888 17.5609 4.51888 12.6378C4.51888 11.2372 5.01378 10.0914 5.79796 9.20026C5.67423 8.88203 5.24082 7.56615 5.92194 5.80495C5.92194 5.80495 6.97423 5.46536 9.34694 7.12057C10.3628 6.84002 11.4104 6.69729 12.4628 6.69609C13.5151 6.69609 14.5878 6.84479 15.5783 7.12057C17.9513 5.46536 19.0036 5.80495 19.0036 5.80495C19.6847 7.56615 19.251 8.88203 19.1273 9.20026C19.9321 10.0914 20.4066 11.2372 20.4066 12.6378C20.4066 17.5609 17.4974 18.643 14.7117 18.9615C15.1658 19.3646 15.5577 20.1284 15.5577 21.338C15.5577 23.0568 15.5372 24.4362 15.5372 24.8604C15.5372 25.2 15.7643 25.6034 16.3832 25.476C21.3352 23.7781 24.9048 18.9826 24.9048 13.3169C24.9253 6.22917 19.3337 0.5 12.4628 0.5Z" fill="#333333"/>
</g>
<defs>
<clipPath id="clip0_893_1967">
<rect width="25" height="25" fill="white" transform="translate(0 0.5)"/>
</clipPath>
</defs>
</svg>
