<svg width="25" height="26" viewBox="0 0 25 26" fill="none" xmlns="http://www.w3.org/2000/svg">
<path d="M23.5 13.2604C23.5 12.4479 23.4271 11.6667 23.2917 10.9167H12.5V15.3542H18.6667C18.3958 16.7812 17.5833 17.9896 16.3646 18.8021V21.6875H20.0833C22.25 19.6875 23.5 16.75 23.5 13.2604Z" fill="#333333"/>
<path d="M12.4999 24.4583C15.5937 24.4583 18.1874 23.4375 20.0833 21.6875L16.3645 18.8021C15.3437 19.4896 14.0416 19.9062 12.4999 19.9062C9.52075 19.9062 6.9895 17.8958 6.08325 15.1875H2.27075V18.1458C4.15617 21.8854 8.02075 24.4583 12.4999 24.4583Z" fill="#333333"/>
<path d="M6.08342 15.1771C5.85425 14.4896 5.71883 13.7604 5.71883 13C5.71883 12.2396 5.85425 11.5104 6.08342 10.8229V7.86459H2.27091C1.48966 9.40626 1.04175 11.1458 1.04175 13C1.04175 14.8542 1.48966 16.5938 2.27091 18.1354L5.23967 15.8229L6.08342 15.1771Z" fill="#333333"/>
<path d="M12.4999 6.10416C14.1874 6.10416 15.6874 6.68749 16.8853 7.81249L20.1666 4.53124C18.177 2.67707 15.5937 1.54166 12.4999 1.54166C8.02075 1.54166 4.15617 4.11457 2.27075 7.86457L6.08325 10.8229C6.9895 8.11457 9.52075 6.10416 12.4999 6.10416Z" fill="#333333"/>
</svg>
