<svg width="24" height="24" viewBox="0 0 24 24" fill="none" xmlns="http://www.w3.org/2000/svg">
<mask id="mask0_2253_611" style="mask-type:alpha" maskUnits="userSpaceOnUse" x="0" y="0" width="24" height="24">
<rect width="24" height="24" fill="#D9D9D9"/>
</mask>
<g mask="url(#mask0_2253_611)">
<path d="M13 21C12.7167 21 12.4792 20.9042 12.2875 20.7125C12.0958 20.5208 12 20.2833 12 20V12H4C3.71667 12 3.47917 11.9042 3.2875 11.7125C3.09583 11.5208 3 11.2833 3 11C3 10.7167 3.09583 10.4792 3.2875 10.2875C3.47917 10.0958 3.71667 10 4 10H13C13.2833 10 13.5208 10.0958 13.7125 10.2875C13.9042 10.4792 14 10.7167 14 11V20C14 20.2833 13.9042 20.5208 13.7125 20.7125C13.5208 20.9042 13.2833 21 13 21ZM18 16C17.7167 16 17.4792 15.9042 17.2875 15.7125C17.0958 15.5208 17 15.2833 17 15V7H9C8.71667 7 8.47917 6.90417 8.2875 6.7125C8.09583 6.52083 8 6.28333 8 6C8 5.71667 8.09583 5.47917 8.2875 5.2875C8.47917 5.09583 8.71667 5 9 5H18C18.2833 5 18.5208 5.09583 18.7125 5.2875C18.9042 5.47917 19 5.71667 19 6V15C19 15.2833 18.9042 15.5208 18.7125 15.7125C18.5208 15.9042 18.2833 16 18 16Z" fill="#1C1B1F"/>
</g>
</svg>
