<svg width="20" height="20" viewBox="0 0 20 20" fill="none" xmlns="http://www.w3.org/2000/svg">
<mask id="mask0_2055_565" style="mask-type:alpha" maskUnits="userSpaceOnUse" x="0" y="0" width="20" height="20">
<rect x="20" y="20" width="20" height="20" transform="rotate(180 20 20)" fill="#D9D9D9"/>
</mask>
<g mask="url(#mask0_2055_565)">
<path d="M12.4713 9.99988L6.44397 3.97259C6.2923 3.82092 6.21508 3.63294 6.2123 3.40863C6.20966 3.18419 6.28418 2.99613 6.43584 2.84446C6.58765 2.6928 6.7757 2.61696 7.00001 2.61696C7.22432 2.61696 7.41237 2.6928 7.56418 2.84446L13.7692 9.05759C13.906 9.19439 14.0038 9.34238 14.0625 9.50155C14.1213 9.66071 14.1506 9.82682 14.1506 9.99988C14.1506 10.1729 14.1213 10.339 14.0625 10.4982C14.0038 10.6574 13.906 10.8054 13.7692 10.9422L7.56418 17.1474C7.41237 17.299 7.22563 17.3762 7.00397 17.3788C6.7823 17.3815 6.59563 17.307 6.44397 17.1553C6.2923 17.0036 6.21647 16.8156 6.21647 16.5911C6.21647 16.3668 6.2923 16.1788 6.44397 16.0272L12.4713 9.99988Z" fill="#1C1B1F"/>
</g>
</svg>
