<svg width="20" height="20" viewBox="0 0 20 20" fill="none" xmlns="http://www.w3.org/2000/svg">
<mask id="mask0_2140_412" style="mask-type:alpha" maskUnits="userSpaceOnUse" x="0" y="0" width="20" height="20">
<rect width="20" height="20" fill="#D9D9D9"/>
</mask>
<g mask="url(#mask0_2140_412)">
<path d="M9.64188 11.3535L7.07584 8.786C7.04056 8.75058 7.01271 8.711 6.99229 8.66725C6.97188 8.62364 6.96167 8.57975 6.96167 8.53558C6.96167 8.44739 6.99236 8.37079 7.05375 8.30579C7.11514 8.24093 7.19605 8.2085 7.29646 8.2085H12.7035C12.804 8.2085 12.8849 8.24239 12.9463 8.31016C13.0076 8.3778 13.0383 8.45676 13.0383 8.54704C13.0383 8.55857 13.0002 8.63801 12.924 8.78537L10.3581 11.3535C10.3117 11.4 10.2563 11.4372 10.1919 11.465C10.1274 11.4927 10.0635 11.5066 10 11.5066C9.93653 11.5066 9.87257 11.4927 9.80813 11.465C9.74368 11.4372 9.68827 11.4 9.64188 11.3535Z" fill="#666666"/>
</g>
</svg>
