<svg width="20" height="20" viewBox="0 0 20 20" fill="none" xmlns="http://www.w3.org/2000/svg">
<mask id="mask0_2055_561" style="mask-type:alpha" maskUnits="userSpaceOnUse" x="0" y="0" width="20" height="20">
<rect width="20" height="20" fill="#D9D9D9"/>
</mask>
<g mask="url(#mask0_2055_561)">
<path d="M7.52874 10.0001L13.556 16.0274C13.7077 16.1791 13.7849 16.3671 13.7877 16.5914C13.7903 16.8158 13.7158 17.0039 13.5642 17.1555C13.4124 17.3072 13.2243 17.383 13 17.383C12.7757 17.383 12.5876 17.3072 12.4358 17.1555L6.23082 10.9424C6.09402 10.8056 5.99624 10.6576 5.93749 10.4985C5.87874 10.3393 5.84937 10.1732 5.84937 10.0001C5.84937 9.82706 5.87874 9.66095 5.93749 9.50179C5.99624 9.34262 6.09402 9.19463 6.23082 9.05783L12.4358 2.85262C12.5876 2.70095 12.7744 2.6238 12.996 2.62116C13.2177 2.61852 13.4044 2.69304 13.556 2.8447C13.7077 2.99637 13.7835 3.18443 13.7835 3.40887C13.7835 3.63318 13.7077 3.82116 13.556 3.97283L7.52874 10.0001Z" fill="#1C1B1F"/>
</g>
</svg>
