<svg width="14" height="16" viewBox="0 0 14 16" fill="none" xmlns="http://www.w3.org/2000/svg">
<path d="M1.3746 15.6592C0.989713 15.6592 0.664392 15.5238 0.398635 15.2531C0.132878 14.9823 0 14.6595 0 14.2846V3.52509C0 3.15018 0.132878 2.82735 0.398635 2.55661C0.664392 2.28587 0.989713 2.15049 1.3746 2.15049H3.24231V0.571983C3.24231 0.408824 3.29645 0.272667 3.40475 0.163515C3.51305 0.0545043 3.64814 0 3.81001 0C3.97203 0 4.10862 0.0545043 4.21976 0.163515C4.33105 0.272667 4.3867 0.408824 4.3867 0.571983V2.15049H9.15493V0.555738C9.15493 0.397994 9.20766 0.265899 9.31311 0.159453C9.4187 0.0531506 9.54972 0 9.70618 0C9.86264 0 9.9951 0.0531506 10.1035 0.159453C10.2121 0.265899 10.2664 0.397994 10.2664 0.555738V2.15049H12.1341C12.519 2.15049 12.8443 2.28587 13.1101 2.55661C13.3758 2.82735 13.5087 3.15018 13.5087 3.52509V14.2846C13.5087 14.6595 13.3758 14.9823 13.1101 15.2531C12.8443 15.5238 12.519 15.6592 12.1341 15.6592H1.3746ZM1.3746 14.5477H12.1341C12.2 14.5477 12.2602 14.5203 12.3149 14.4654C12.3698 14.4107 12.3972 14.3504 12.3972 14.2846V7.11601H1.11148V14.2846C1.11148 14.3504 1.13891 14.4107 1.19377 14.4654C1.24849 14.5203 1.30876 14.5477 1.3746 14.5477ZM1.11148 6.00454H12.3972V3.52509C12.3972 3.45926 12.3698 3.39898 12.3149 3.34426C12.2602 3.2894 12.2 3.26197 12.1341 3.26197H1.3746C1.30876 3.26197 1.24849 3.2894 1.19377 3.34426C1.13891 3.39898 1.11148 3.45926 1.11148 3.52509V6.00454ZM6.75885 9.99666C6.57503 9.99666 6.4165 9.93154 6.28326 9.8013C6.15017 9.6712 6.08362 9.51417 6.08362 9.3302C6.08362 9.14638 6.14867 8.98785 6.27877 8.85462C6.40902 8.72153 6.56605 8.65498 6.74987 8.65498C6.93369 8.65498 7.09222 8.72003 7.22545 8.85013C7.35854 8.98037 7.42509 9.13741 7.42509 9.32123C7.42509 9.50519 7.36004 9.66372 7.22994 9.79681C7.0997 9.93005 6.94267 9.99666 6.75885 9.99666ZM3.42442 9.99666C3.2406 9.99666 3.08207 9.93154 2.94883 9.8013C2.81574 9.6712 2.74919 9.51417 2.74919 9.3302C2.74919 9.14638 2.81424 8.98785 2.94434 8.85462C3.07459 8.72153 3.23162 8.65498 3.41544 8.65498C3.59926 8.65498 3.75779 8.72003 3.89102 8.85013C4.02412 8.98037 4.09066 9.13741 4.09066 9.32123C4.09066 9.50519 4.02561 9.66372 3.89551 9.79681C3.76527 9.93005 3.60824 9.99666 3.42442 9.99666ZM10.0933 9.99666C9.90946 9.99666 9.75093 9.93154 9.61769 9.8013C9.4846 9.6712 9.41805 9.51417 9.41805 9.3302C9.41805 9.14638 9.4831 8.98785 9.6132 8.85462C9.74345 8.72153 9.90048 8.65498 10.0843 8.65498C10.2681 8.65498 10.4266 8.72003 10.5599 8.85013C10.693 8.98037 10.7595 9.13741 10.7595 9.32123C10.7595 9.50519 10.6945 9.66372 10.5644 9.79681C10.4341 9.93005 10.2771 9.99666 10.0933 9.99666ZM6.75885 13.0088C6.57503 13.0088 6.4165 12.9436 6.28326 12.8134C6.15017 12.6833 6.08362 12.5263 6.08362 12.3425C6.08362 12.1586 6.14867 12 6.27877 11.8669C6.40902 11.7337 6.56605 11.6671 6.74987 11.6671C6.93369 11.6671 7.09222 11.7322 7.22545 11.8624C7.35854 11.9925 7.42509 12.1496 7.42509 12.3335C7.42509 12.5174 7.36004 12.6758 7.22994 12.8089C7.0997 12.9421 6.94267 13.0088 6.75885 13.0088ZM3.42442 13.0088C3.2406 13.0088 3.08207 12.9436 2.94883 12.8134C2.81574 12.6833 2.74919 12.5263 2.74919 12.3425C2.74919 12.1586 2.81424 12 2.94434 11.8669C3.07459 11.7337 3.23162 11.6671 3.41544 11.6671C3.59926 11.6671 3.75779 11.7322 3.89102 11.8624C4.02412 11.9925 4.09066 12.1496 4.09066 12.3335C4.09066 12.5174 4.02561 12.6758 3.89551 12.8089C3.76527 12.9421 3.60824 13.0088 3.42442 13.0088ZM10.0933 13.0088C9.90946 13.0088 9.75093 12.9436 9.61769 12.8134C9.4846 12.6833 9.41805 12.5263 9.41805 12.3425C9.41805 12.1586 9.4831 12 9.6132 11.8669C9.74345 11.7337 9.90048 11.6671 10.0843 11.6671C10.2681 11.6671 10.4266 11.7322 10.5599 11.8624C10.693 11.9925 10.7595 12.1496 10.7595 12.3335C10.7595 12.5174 10.6945 12.6758 10.5644 12.8089C10.4341 12.9421 10.2771 13.0088 10.0933 13.0088Z" fill="#333333"/>
</svg>
