<svg width="20" height="20" viewBox="0 0 20 20" fill="none" xmlns="http://www.w3.org/2000/svg">
<mask id="mask0_2055_678" style="mask-type:alpha" maskUnits="userSpaceOnUse" x="0" y="0" width="20" height="20">
<rect width="20" height="20" fill="#D9D9D9"/>
</mask>
<g mask="url(#mask0_2055_678)">
<path d="M5.68397 11.1667C5.38481 11.1667 5.13022 11.0601 4.92022 10.8471C4.71009 10.634 4.60502 10.378 4.60502 10.079C4.60502 9.77979 4.71154 9.52521 4.9246 9.31521C5.13765 9.10507 5.3937 9 5.69272 9C5.99189 9 6.24654 9.10653 6.45668 9.31958C6.66668 9.53264 6.77168 9.78868 6.77168 10.0877C6.77168 10.3869 6.66515 10.6415 6.4521 10.8515C6.23918 11.0616 5.98314 11.1667 5.68397 11.1667ZM9.99168 11.1667C9.69252 11.1667 9.43793 11.0601 9.22793 10.8471C9.01779 10.634 8.91272 10.378 8.91272 10.079C8.91272 9.77979 9.01925 9.52521 9.23231 9.31521C9.44536 9.10507 9.7014 9 10.0004 9C10.2996 9 10.5542 9.10653 10.7642 9.31958C10.9743 9.53264 11.0794 9.78868 11.0794 10.0877C11.0794 10.3869 10.9729 10.6415 10.7598 10.8515C10.5468 11.0616 10.2907 11.1667 9.99168 11.1667ZM14.2994 11.1667C14.0002 11.1667 13.7456 11.0601 13.5354 10.8471C13.3254 10.634 13.2204 10.378 13.2204 10.079C13.2204 9.77979 13.327 9.52521 13.54 9.31521C13.7529 9.10507 14.009 9 14.3081 9C14.6073 9 14.8619 9.10653 15.0719 9.31958C15.282 9.53264 15.3871 9.78868 15.3871 10.0877C15.3871 10.3869 15.2806 10.6415 15.0675 10.8515C14.8545 11.0616 14.5984 11.1667 14.2994 11.1667Z" fill="#333333"/>
</g>
</svg>
