<svg width="20" height="20" viewBox="0 0 20 20" fill="none" xmlns="http://www.w3.org/2000/svg">
<mask id="mask0_2052_3320" style="mask-type:alpha" maskUnits="userSpaceOnUse" x="0" y="0" width="20" height="20">
<rect width="20" height="20" fill="#D9D9D9"/>
</mask>
<g mask="url(#mask0_2052_3320)">
<path d="M11.7559 7.29183C11.6027 7.29183 11.4732 7.2403 11.3673 7.13725C11.2614 7.03419 11.2084 6.90655 11.2084 6.75433C11.2084 6.60197 11.2603 6.47384 11.3642 6.36995C11.468 6.26593 11.5966 6.21391 11.75 6.21391H13.4584V3.75162C13.4584 3.59773 13.5103 3.4687 13.6142 3.36454C13.7181 3.26051 13.8468 3.2085 14.0002 3.2085C14.1539 3.2085 14.2825 3.26051 14.3861 3.36454C14.4898 3.4687 14.5417 3.59773 14.5417 3.75162V6.21391H16.25C16.4035 6.21391 16.5321 6.266 16.6359 6.37016C16.7398 6.47433 16.7917 6.60252 16.7917 6.75475C16.7917 6.90711 16.7399 7.03468 16.6363 7.13745C16.5325 7.24037 16.4041 7.29183 16.2509 7.29183H11.7559ZM14.0042 16.7918C13.8518 16.7918 13.7228 16.7399 13.6171 16.636C13.5113 16.5322 13.4584 16.4036 13.4584 16.2502V9.75016C13.4584 9.59669 13.5099 9.46808 13.613 9.36433C13.716 9.26044 13.8437 9.2085 13.9959 9.2085C14.1482 9.2085 14.2773 9.26044 14.383 9.36433C14.4888 9.46808 14.5417 9.59669 14.5417 9.75016V16.2502C14.5417 16.4036 14.4902 16.5322 14.3871 16.636C14.2841 16.7399 14.1564 16.7918 14.0042 16.7918ZM5.99983 16.7918C5.84622 16.7918 5.71761 16.7398 5.614 16.6358C5.51025 16.5316 5.45837 16.4026 5.45837 16.2487V13.7864H3.75004C3.59657 13.7864 3.46796 13.7343 3.36421 13.6302C3.26032 13.526 3.20837 13.3978 3.20837 13.2456C3.20837 13.0932 3.26018 12.9656 3.36379 12.8629C3.46754 12.76 3.59601 12.7085 3.74921 12.7085H8.24421C8.3974 12.7085 8.52692 12.76 8.63275 12.8631C8.73872 12.9661 8.79171 13.0938 8.79171 13.246C8.79171 13.3984 8.73976 13.5265 8.63587 13.6304C8.53212 13.7344 8.40351 13.7864 8.25004 13.7864H6.54171V16.2487C6.54171 16.4026 6.48976 16.5316 6.38587 16.6358C6.28198 16.7398 6.1533 16.7918 5.99983 16.7918ZM6.00421 10.7918C5.85185 10.7918 5.72282 10.7399 5.61712 10.636C5.51129 10.5322 5.45837 10.4036 5.45837 10.2502V3.75016C5.45837 3.59669 5.5099 3.46808 5.61296 3.36433C5.71601 3.26044 5.84365 3.2085 5.99587 3.2085C6.14824 3.2085 6.27726 3.26044 6.38296 3.36433C6.48879 3.46808 6.54171 3.59669 6.54171 3.75016V10.2502C6.54171 10.4036 6.49018 10.5322 6.38712 10.636C6.28407 10.7399 6.15643 10.7918 6.00421 10.7918Z" fill="#333333"/>
</g>
</svg>
