<svg width="20" height="20" viewBox="0 0 20 20" fill="none" xmlns="http://www.w3.org/2000/svg">
<mask id="mask0_2055_671" style="mask-type:alpha" maskUnits="userSpaceOnUse" x="0" y="0" width="20" height="20">
<rect width="20" height="20" fill="#D9D9D9"/>
</mask>
<g mask="url(#mask0_2055_671)">
<path d="M2.54167 14.5209C2.38889 14.3682 2.3125 14.1911 2.3125 13.9897C2.3125 13.7883 2.38889 13.6112 2.54167 13.4584L6.9375 9.0626C7.22917 8.77094 7.58333 8.6251 8 8.6251C8.41667 8.6251 8.77083 8.77094 9.0625 9.0626L11.2708 11.2501L16.375 5.52094C16.5139 5.36816 16.6875 5.28483 16.8958 5.27094C17.1042 5.25705 17.2847 5.31955 17.4375 5.45844C17.5903 5.59733 17.6736 5.77094 17.6875 5.97927C17.7014 6.1876 17.6389 6.36816 17.5 6.52094L12.3958 12.2709C12.1042 12.5904 11.7431 12.757 11.3125 12.7709C10.8819 12.7848 10.5139 12.639 10.2083 12.3334L8 10.1251L3.58333 14.5418C3.43056 14.6945 3.25694 14.7675 3.0625 14.7605C2.86806 14.7536 2.69444 14.6737 2.54167 14.5209Z" fill="#F1F1F1"/>
</g>
</svg>
