<svg width="20" height="20" viewBox="0 0 20 20" fill="none" xmlns="http://www.w3.org/2000/svg">
<mask id="mask0_2053_3392" style="mask-type:alpha" maskUnits="userSpaceOnUse" x="0" y="0" width="20" height="20">
<rect width="20" height="20" fill="#666666"/>
</mask>
<g mask="url(#mask0_2053_3392)">
<path d="M8.01667 12.6796C6.7182 12.6796 5.61354 12.2242 4.70271 11.3135C3.79202 10.4027 3.33667 9.29823 3.33667 8.00018C3.33667 6.70212 3.79202 5.59768 4.70271 4.68684C5.61354 3.77615 6.71799 3.3208 8.01604 3.3208C9.3141 3.3208 10.4185 3.77615 11.3294 4.68684C12.2401 5.59768 12.6954 6.70233 12.6954 8.0008C12.6954 8.54566 12.606 9.06663 12.4271 9.56372C12.2481 10.0609 12.0058 10.5098 11.7002 10.9104L16.2869 15.4971C16.4023 15.6123 16.4613 15.7365 16.464 15.8696C16.4666 16.0026 16.4076 16.1295 16.2869 16.2502C16.1662 16.3709 16.0372 16.4312 15.8998 16.4312C15.7626 16.4312 15.6336 16.3709 15.5129 16.2502L10.9263 11.6843C10.5096 12.0006 10.0527 12.2455 9.55563 12.4191C9.05855 12.5927 8.54556 12.6796 8.01667 12.6796ZM8.01604 11.5964C9.02035 11.5964 9.87077 11.2481 10.5673 10.5514C11.264 9.8549 11.6123 9.00448 11.6123 8.00018C11.6123 6.99587 11.264 6.14545 10.5673 5.44893C9.87077 4.75226 9.02035 4.40393 8.01604 4.40393C7.01174 4.40393 6.16132 4.75226 5.46479 5.44893C4.76813 6.14545 4.41979 6.99587 4.41979 8.00018C4.41979 9.00448 4.76813 9.8549 5.46479 10.5514C6.16132 11.2481 7.01174 11.5964 8.01604 11.5964Z" fill="#666666"/>
</g>
</svg>
