<svg width="20" height="20" viewBox="0 0 20 20" fill="none" xmlns="http://www.w3.org/2000/svg">
<mask id="mask0_2052_3326" style="mask-type:alpha" maskUnits="userSpaceOnUse" x="0" y="0" width="20" height="20">
<rect x="20" width="20" height="20" transform="rotate(90 20 0)" fill="#333333"/>
</mask>
<g mask="url(#mask0_2052_3326)">
<path d="M10.379 12.2627L16.4063 6.23542C16.558 6.08375 16.7447 6.0066 16.9663 6.00396C17.188 6.00132 17.3747 6.07583 17.5265 6.2275C17.6782 6.37917 17.754 6.56583 17.754 6.7875C17.754 7.00917 17.6782 7.1959 17.5265 7.34771L11.3213 13.5608C11.1845 13.6975 11.0365 13.7952 10.8774 13.854C10.7182 13.9128 10.5521 13.9423 10.379 13.9423C10.206 13.9423 10.0399 13.9128 9.88069 13.854C9.72153 13.7952 9.57354 13.6975 9.43674 13.5608L3.23153 7.35563C3.07986 7.20396 3.00271 7.01597 3.00007 6.79167C2.99743 6.56722 3.07194 6.37917 3.22361 6.2275C3.37528 6.07583 3.56194 6 3.78361 6C4.00528 6 4.19201 6.07583 4.34382 6.2275L10.379 12.2627Z" fill="#333333"/>
</g>
</svg>
