<svg width="48" height="48" viewBox="0 0 48 48" fill="none" xmlns="http://www.w3.org/2000/svg">
<mask id="mask0_2258_288" style="mask-type:alpha" maskUnits="userSpaceOnUse" x="0" y="0" width="48" height="48">
<rect width="48" height="48" fill="#D9D9D9"/>
</mask>
<g mask="url(#mask0_2258_288)">
<path d="M4.6 42C4.3 42 4.03917 41.9312 3.8175 41.7935C3.59583 41.6562 3.42333 41.475 3.3 41.25C3.161 41.03 3.08467 40.7917 3.071 40.535C3.057 40.2783 3.13333 40.0167 3.3 39.75L22.7 6.25C22.8667 5.98333 23.0583 5.79167 23.275 5.675C23.4917 5.55833 23.7333 5.5 24 5.5C24.2667 5.5 24.5083 5.55833 24.725 5.675C24.9417 5.79167 25.1333 5.98333 25.3 6.25L44.7 39.75C44.8667 40.0167 44.943 40.2783 44.929 40.535C44.9153 40.7917 44.839 41.03 44.7 41.25C44.5767 41.475 44.4042 41.6562 44.1825 41.7935C43.9608 41.9312 43.7 42 43.4 42H4.6ZM24.209 36.15C24.6363 36.15 24.9917 36.0053 25.275 35.716C25.5583 35.427 25.7 35.0687 25.7 34.641C25.7 34.2137 25.5553 33.8583 25.266 33.575C24.977 33.2917 24.6187 33.15 24.191 33.15C23.7637 33.15 23.4083 33.2947 23.125 33.584C22.8417 33.873 22.7 34.2313 22.7 34.659C22.7 35.0863 22.8447 35.4417 23.134 35.725C23.423 36.0083 23.7813 36.15 24.209 36.15ZM24.209 30.6C24.6363 30.6 24.9917 30.4562 25.275 30.1685C25.5583 29.8812 25.7 29.525 25.7 29.1V20.9C25.7 20.475 25.5553 20.1187 25.266 19.831C24.977 19.5437 24.6187 19.4 24.191 19.4C23.7637 19.4 23.4083 19.5437 23.125 19.831C22.8417 20.1187 22.7 20.475 22.7 20.9V29.1C22.7 29.525 22.8447 29.8812 23.134 30.1685C23.423 30.4562 23.7813 30.6 24.209 30.6Z" fill="#FFC107"/>
</g>
</svg>
